<svg width="1047" height="137" viewBox="0 0 1047 137" fill="none" xmlns="http://www.w3.org/2000/svg">
<path opacity="0.1" d="M419.158 1.10894L318.149 0.999986L289.201 46.4108M419.158 1.10894L393.358 46.4108L289.201 46.4108M419.158 1.10894L802.229 1.10893M419.158 1.10894L470.922 1.10894M289.201 46.4108L186.153 46.4108M289.201 46.4108L262.777 0.999989M289.201 46.4108L263.716 90.6077M802.229 1.10893L538.513 1.10894M802.229 1.10893L828.822 46.4108M958.779 1.10892L854.307 0.999978L828.822 46.4108M958.779 1.10892L1046 1.10892L1009.43 1.10892M958.779 1.10892L932.979 46.4108L828.822 46.4108M958.779 1.10892L1009.43 1.10892M186.153 46.4108L211.638 1.66141L212.014 0.999991M186.153 46.4108L26.5932 46.4108M262.777 0.999989L237.396 0.99999L212.014 0.999991M262.777 0.999989L212.014 0.999991M212.014 0.999991L-5.90104e-06 1L26.5932 46.4108M26.5932 46.4108L52.0784 90.6077M77.5636 134.805L134.948 135.879M77.5636 134.805L52.0784 90.6077M77.5636 134.805L19.9449 134.805M134.948 135.879L159.559 90.6077M134.948 135.879C260.398 136.298 330.968 135.459 456.419 135.879M159.559 90.6077L52.0784 90.6077M159.559 90.6077L263.716 90.6077M263.716 90.6077L419.158 90.6077L470.922 1.10894M565.106 46.4108L538.513 1.10894M565.106 46.4108L722.449 46.4108L828.822 46.4108M565.106 46.4108L591.699 90.6077M538.513 1.10894L470.922 1.10894M591.699 90.6077L614.968 134.805M591.699 90.6077L697.518 90.6077M1009.43 1.10892L957.356 90.6077L907.494 90.6077M828.822 46.4108L803.337 90.6077M803.337 90.6077L854.307 90.6077M803.337 90.6077L697.518 90.6077M-5.22508e-08 134.805L19.9449 134.805M19.9449 134.805L-1.45288e-06 102.762M1043.78 134.805L995.03 134.805M995.03 134.805L1046 44.2009M995.03 134.805L877.576 134.805M877.576 134.805L854.307 90.6077M877.576 134.805L907.494 90.6077M877.576 134.805L674.803 134.805M854.307 90.6077L907.494 90.6077M614.968 134.805L674.803 134.805M614.968 134.805L456.419 135.879M697.518 90.6077L674.803 134.805M456.419 135.879L506.379 47.5157L558.458 134.805" stroke="#FFE9CD"/>
</svg>
