<svg width="142" height="841" viewBox="0 0 142 841" fill="none" xmlns="http://www.w3.org/2000/svg">
<path opacity="0.2" d="M1.11306 735.185L1.00007 853.653L48.0927 887.603M1.11306 735.185L48.0927 765.444L48.0927 887.603M1.11306 735.185L1.11303 285.904M1.11306 735.185L1.11306 674.474M48.0927 887.603L48.0927 1008.46M48.0927 887.603L1.00007 918.595M48.0927 887.603L93.9265 917.493M1.11303 285.904L1.11305 595.201M1.11303 285.904L48.0927 254.715M1.11301 102.297L1.00003 224.825L48.0927 254.715M1.11301 102.297L1.11301 -0.000178725L1.11301 42.8855M1.11301 102.297L48.0927 132.556L48.0927 254.715M1.11301 102.297L1.11301 42.8855M48.0927 1008.46L1.686 978.573L1.00008 978.131M48.0927 1008.46L48.0927 1195.6M1.00007 918.595L1.00007 948.363L1.00008 978.131M1.00007 918.595L1.00008 978.131M1.00008 978.131L1.00009 1226.79L48.0927 1195.6M48.0927 1195.6L93.9266 1165.71M139.76 1135.82L140.874 1068.52M139.76 1135.82L93.9266 1165.71M139.76 1135.82L139.76 1203.4M140.874 1068.52L93.9265 1039.65M140.874 1068.52C141.309 921.385 140.439 838.618 140.874 691.484M93.9265 1039.65L93.9266 1165.71M93.9265 1039.65L93.9265 917.493M93.9265 917.493L93.9265 735.185L1.11306 674.474M48.0927 564.011L1.11305 595.201M48.0927 564.011L48.0927 379.473L48.0927 254.715M48.0927 564.011L93.9265 532.822M1.11305 595.201L1.11306 674.474M93.9265 532.822L139.76 505.531M93.9265 532.822L93.9265 408.713M1.11301 42.8855L93.9265 103.965L93.9265 162.445M48.0927 254.715L93.9265 284.605M93.9265 284.605L93.9265 224.825M93.9265 284.605L93.9265 408.713M139.76 1226.79L139.76 1203.4M139.76 1203.4L106.531 1226.79M139.76 2.5988L139.76 59.7798M139.76 59.7798L45.801 -0.000183171M139.76 59.7798L139.76 197.534M139.76 197.534L93.9265 224.825M139.76 197.534L93.9265 162.445M139.76 197.534L139.76 435.354M93.9265 224.825L93.9265 162.445M139.76 505.531L139.76 435.354M139.76 505.531L140.874 691.484M93.9265 408.713L139.76 435.354M140.874 691.484L49.2386 632.888L139.76 571.809" stroke="#2C2928"/>
</svg>
