<svg width="745" height="98" viewBox="0 0 745 98" fill="none" xmlns="http://www.w3.org/2000/svg">
<path opacity="0.1" d="M298.738 1.07751L226.989 1.00002L206.427 33.2921M298.738 1.07751L280.412 33.2921L206.427 33.2921M298.738 1.07751L570.843 1.07749M298.738 1.07751L335.507 1.0775M206.427 33.2921L133.229 33.2921M206.427 33.2921L187.657 1.00002M206.427 33.2921L188.324 64.7211M570.843 1.07749L383.519 1.0775M570.843 1.07749L589.733 33.2921M682.044 1.07749L607.836 1.00001L589.733 33.2921M682.044 1.07749L744 1.07749L718.026 1.07749M682.044 1.07749L663.718 33.2921L589.733 33.2921M682.044 1.07749L718.026 1.07749M133.229 33.2921L151.332 1.47037L151.599 1.00002M133.229 33.2921L19.8898 33.2921M187.657 1.00002L169.628 1.00002L151.599 1.00002M187.657 1.00002L151.599 1.00002M151.599 1.00002L0.999996 1.00003L19.8898 33.2921M19.8898 33.2921L37.9926 64.7211M56.0953 96.15L96.8567 96.9139M56.0953 96.15L37.9926 64.7211M56.0953 96.15L15.1674 96.15M96.8567 96.9139L114.339 64.7211M96.8567 96.9139C185.967 97.2122 236.095 96.6156 325.206 96.9139M114.339 64.7211L37.9926 64.7211M114.339 64.7211L188.324 64.7211M188.324 64.7211L298.738 64.721L335.507 1.0775M402.409 33.2921L383.519 1.0775M402.409 33.2921L514.174 33.2921L589.733 33.2921M402.409 33.2921L421.299 64.721M383.519 1.0775L335.507 1.0775M421.299 64.721L437.827 96.1499M421.299 64.721L496.465 64.721M718.026 1.07749L681.034 64.721L645.616 64.721M589.733 33.2921L571.63 64.721M571.63 64.721L607.836 64.721M571.63 64.721L496.465 64.721M1 96.15L15.1674 96.15M15.1674 96.15L0.999999 73.364M742.426 96.1499L707.795 96.1499M707.795 96.1499L744 31.7207M707.795 96.1499L624.364 96.1499M624.364 96.1499L607.836 64.721M624.364 96.1499L645.616 64.721M624.364 96.1499L480.329 96.1499M607.836 64.721L645.616 64.721M437.827 96.1499L480.329 96.1499M437.827 96.1499L325.206 96.9139M496.465 64.721L480.329 96.1499M325.206 96.9139L360.694 34.0779L397.686 96.15" stroke="#2C2928"/>
</svg>
